<mxfile host="app.diagrams.net" modified="2022-03-03T08:32:08.457Z" agent="5.0 (Windows NT 10.0; Win64; x64) AppleWebKit/537.36 (KHTML, like Gecko) Chrome/98.0.4758.102 Safari/537.36" etag="5Txk0yvFWSkchWUSOhyY" version="16.6.4" type="github">
  <diagram id="SNoBqOypM2UpMaVSAHki" name="Page-1">
    <mxGraphModel dx="2000" dy="1162" grid="1" gridSize="10" guides="1" tooltips="1" connect="1" arrows="1" fold="1" page="1" pageScale="1" pageWidth="850" pageHeight="1100" math="0" shadow="0">
      <root>
        <mxCell id="0" />
        <mxCell id="1" parent="0" />
        <mxCell id="VuzW8GXzsAqmzw6oY8kO-3" value="" style="edgeStyle=orthogonalEdgeStyle;rounded=0;orthogonalLoop=1;jettySize=auto;html=1;" parent="1" source="VuzW8GXzsAqmzw6oY8kO-1" target="VuzW8GXzsAqmzw6oY8kO-2" edge="1">
          <mxGeometry relative="1" as="geometry" />
        </mxCell>
        <mxCell id="VuzW8GXzsAqmzw6oY8kO-1" value="Main control node" style="rounded=1;whiteSpace=wrap;html=1;" parent="1" vertex="1">
          <mxGeometry x="280" y="240" width="120" height="60" as="geometry" />
        </mxCell>
        <mxCell id="VuzW8GXzsAqmzw6oY8kO-2" value="Processing node" style="rounded=1;whiteSpace=wrap;html=1;" parent="1" vertex="1">
          <mxGeometry x="280" y="360" width="120" height="60" as="geometry" />
        </mxCell>
        <mxCell id="VuzW8GXzsAqmzw6oY8kO-4" value="Processing node" style="rounded=1;whiteSpace=wrap;html=1;" parent="1" vertex="1">
          <mxGeometry x="290" y="370" width="120" height="60" as="geometry" />
        </mxCell>
        <mxCell id="VuzW8GXzsAqmzw6oY8kO-5" value="Processing node" style="rounded=1;whiteSpace=wrap;html=1;" parent="1" vertex="1">
          <mxGeometry x="300" y="380" width="120" height="60" as="geometry" />
        </mxCell>
        <mxCell id="VuzW8GXzsAqmzw6oY8kO-6" value="Processing node" style="rounded=1;whiteSpace=wrap;html=1;" parent="1" vertex="1">
          <mxGeometry x="310" y="390" width="120" height="60" as="geometry" />
        </mxCell>
        <mxCell id="VuzW8GXzsAqmzw6oY8kO-7" value="" style="endArrow=none;dashed=1;html=1;dashPattern=1 3;strokeWidth=2;rounded=0;" parent="1" source="VuzW8GXzsAqmzw6oY8kO-6" edge="1">
          <mxGeometry width="50" height="50" relative="1" as="geometry">
            <mxPoint x="360" y="480" as="sourcePoint" />
            <mxPoint x="370" y="540" as="targetPoint" />
          </mxGeometry>
        </mxCell>
        <mxCell id="nCyZlq6CnmxcqzVL5-ME-1" value="" style="whiteSpace=wrap;html=1;aspect=fixed;" vertex="1" parent="1">
          <mxGeometry x="120" y="720" width="200" height="200" as="geometry" />
        </mxCell>
        <mxCell id="nCyZlq6CnmxcqzVL5-ME-2" value="" style="whiteSpace=wrap;html=1;aspect=fixed;" vertex="1" parent="1">
          <mxGeometry x="360" y="720" width="200" height="200" as="geometry" />
        </mxCell>
        <mxCell id="nCyZlq6CnmxcqzVL5-ME-3" value="" style="endArrow=none;dashed=1;html=1;dashPattern=1 3;strokeWidth=2;rounded=0;" edge="1" parent="1">
          <mxGeometry width="50" height="50" relative="1" as="geometry">
            <mxPoint x="600" y="819.5" as="sourcePoint" />
            <mxPoint x="810" y="819.5" as="targetPoint" />
          </mxGeometry>
        </mxCell>
        <mxCell id="nCyZlq6CnmxcqzVL5-ME-4" value="&lt;font style=&quot;font-size: 25px&quot;&gt;node pool a&lt;/font&gt;" style="text;html=1;strokeColor=none;fillColor=none;align=center;verticalAlign=middle;whiteSpace=wrap;rounded=0;" vertex="1" parent="1">
          <mxGeometry x="135" y="680" width="170" height="30" as="geometry" />
        </mxCell>
        <mxCell id="nCyZlq6CnmxcqzVL5-ME-5" value="&lt;font style=&quot;font-size: 25px&quot;&gt;node pool b&lt;/font&gt;" style="text;html=1;strokeColor=none;fillColor=none;align=center;verticalAlign=middle;whiteSpace=wrap;rounded=0;" vertex="1" parent="1">
          <mxGeometry x="375" y="680" width="170" height="30" as="geometry" />
        </mxCell>
        <mxCell id="nCyZlq6CnmxcqzVL5-ME-6" value="&lt;font style=&quot;font-size: 25px&quot;&gt;node pool n&lt;/font&gt;" style="text;html=1;strokeColor=none;fillColor=none;align=center;verticalAlign=middle;whiteSpace=wrap;rounded=0;" vertex="1" parent="1">
          <mxGeometry x="610" y="680" width="170" height="30" as="geometry" />
        </mxCell>
        <mxCell id="nCyZlq6CnmxcqzVL5-ME-7" value="" style="whiteSpace=wrap;html=1;aspect=fixed;fontSize=25;" vertex="1" parent="1">
          <mxGeometry x="155" y="770" width="80" height="80" as="geometry" />
        </mxCell>
        <mxCell id="nCyZlq6CnmxcqzVL5-ME-8" value="" style="whiteSpace=wrap;html=1;aspect=fixed;fontSize=25;" vertex="1" parent="1">
          <mxGeometry x="165" y="780" width="80" height="80" as="geometry" />
        </mxCell>
        <mxCell id="nCyZlq6CnmxcqzVL5-ME-9" value="" style="whiteSpace=wrap;html=1;aspect=fixed;fontSize=25;" vertex="1" parent="1">
          <mxGeometry x="175" y="790" width="80" height="80" as="geometry" />
        </mxCell>
        <mxCell id="nCyZlq6CnmxcqzVL5-ME-10" value="" style="whiteSpace=wrap;html=1;aspect=fixed;fontSize=25;" vertex="1" parent="1">
          <mxGeometry x="185" y="800" width="80" height="80" as="geometry" />
        </mxCell>
        <mxCell id="nCyZlq6CnmxcqzVL5-ME-11" value="" style="whiteSpace=wrap;html=1;aspect=fixed;fontSize=25;" vertex="1" parent="1">
          <mxGeometry x="195" y="810" width="80" height="80" as="geometry" />
        </mxCell>
        <mxCell id="nCyZlq6CnmxcqzVL5-ME-12" value="" style="whiteSpace=wrap;html=1;aspect=fixed;fontSize=25;" vertex="1" parent="1">
          <mxGeometry x="205" y="820" width="80" height="80" as="geometry" />
        </mxCell>
        <mxCell id="nCyZlq6CnmxcqzVL5-ME-13" value="" style="whiteSpace=wrap;html=1;aspect=fixed;fontSize=25;" vertex="1" parent="1">
          <mxGeometry x="400" y="770" width="80" height="80" as="geometry" />
        </mxCell>
        <mxCell id="nCyZlq6CnmxcqzVL5-ME-14" value="" style="whiteSpace=wrap;html=1;aspect=fixed;fontSize=25;" vertex="1" parent="1">
          <mxGeometry x="410" y="780" width="80" height="80" as="geometry" />
        </mxCell>
        <mxCell id="nCyZlq6CnmxcqzVL5-ME-15" value="" style="whiteSpace=wrap;html=1;aspect=fixed;fontSize=25;" vertex="1" parent="1">
          <mxGeometry x="420" y="790" width="80" height="80" as="geometry" />
        </mxCell>
        <mxCell id="nCyZlq6CnmxcqzVL5-ME-16" value="" style="whiteSpace=wrap;html=1;aspect=fixed;fontSize=25;" vertex="1" parent="1">
          <mxGeometry x="430" y="800" width="80" height="80" as="geometry" />
        </mxCell>
        <mxCell id="nCyZlq6CnmxcqzVL5-ME-17" value="" style="whiteSpace=wrap;html=1;aspect=fixed;fontSize=25;" vertex="1" parent="1">
          <mxGeometry x="440" y="810" width="80" height="80" as="geometry" />
        </mxCell>
        <mxCell id="nCyZlq6CnmxcqzVL5-ME-18" value="" style="whiteSpace=wrap;html=1;aspect=fixed;fontSize=25;" vertex="1" parent="1">
          <mxGeometry x="450" y="820" width="80" height="80" as="geometry" />
        </mxCell>
        <mxCell id="nCyZlq6CnmxcqzVL5-ME-19" value="&lt;font style=&quot;font-size: 13px&quot;&gt;auto scaling nodes/instances&lt;/font&gt;" style="text;html=1;strokeColor=none;fillColor=none;align=center;verticalAlign=middle;whiteSpace=wrap;rounded=0;fontSize=25;" vertex="1" parent="1">
          <mxGeometry x="115" y="730" width="210" height="30" as="geometry" />
        </mxCell>
        <mxCell id="nCyZlq6CnmxcqzVL5-ME-20" value="&lt;font style=&quot;font-size: 13px&quot;&gt;auto scaling nodes/instances&lt;/font&gt;" style="text;html=1;strokeColor=none;fillColor=none;align=center;verticalAlign=middle;whiteSpace=wrap;rounded=0;fontSize=25;" vertex="1" parent="1">
          <mxGeometry x="355" y="730" width="210" height="30" as="geometry" />
        </mxCell>
      </root>
    </mxGraphModel>
  </diagram>
</mxfile>
